<svg version="1.2" baseProfile="tiny-ps" xmlns="http://www.w3.org/2000/svg" viewBox="0 0 1594 446" width="1594" height="446">
	<title>dior lo-svg</title>
	<style>
		tspan { white-space:pre }
		.shp0 { fill: #ffffff } 
	</style>
	<path id="Layer" fill-rule="evenodd" class="shp0" d="M4.83 8.7L211.7 8.7C389.57 8.7 459.17 113.13 459.17 223.68C459.17 336.16 369.91 436.4 200.1 436.4L5.16 436.4C1.61 436.4 0.32 434.14 0.32 432.21C0.32 429.95 2.58 428.02 5.8 428.02L42.21 428.02C53.49 428.02 60.9 421.25 60.9 408.68L60.9 37.06C60.9 27.72 56.39 17.4 41.57 17.4L4.51 17.4C1.61 17.4 0 15.47 0 13.21C0 11.28 0.64 8.7 4.83 8.7ZM144.36 428.66L199.13 428.66C334.14 428.66 383.12 325.2 383.12 221.42C383.12 117.64 331.24 17.08 217.18 17.08L142.74 17.08C135.01 17.08 134.37 23.53 134.37 26.43L134.04 416.41C134.04 425.76 138.23 428.66 144.36 428.66ZM479.79 9.02L654.43 9.02C658.3 9.02 659.91 10.96 659.91 13.21C659.91 15.47 658.3 17.08 655.4 17.08L622.21 17.08C609.97 17.08 603.2 24.17 603.2 34.81L603.2 410.61C603.2 425.44 616.41 428.34 621.24 428.34L655.08 428.34C659.59 428.34 660.23 430.92 660.23 433.5C660.23 436.07 656.69 436.4 654.11 436.4L478.82 436.4C473.99 436.4 474.31 434.14 474.31 432.85C474.31 431.56 474.63 428.34 478.82 428.34L514.91 428.34C525.22 428.34 531.02 416.74 531.02 409L531.02 38.68C531.02 22.56 522.97 16.76 514.59 16.76L478.18 16.76C475.28 16.76 473.67 15.15 473.67 12.57C473.67 9.99 476.57 8.7 479.79 8.7L479.79 9.02ZM675.7 222.71C675.7 99.91 763.99 0 905.77 0C1047.87 0 1135.83 100.24 1135.83 223.03C1135.83 345.83 1046.9 445.74 905.77 445.74C767.53 445.74 675.7 345.51 675.7 222.71ZM753.68 222.71C753.68 341 806.84 437.04 905.77 436.72C1007.91 436.72 1057.86 341 1057.86 222.71C1057.86 104.43 1003.08 8.7 905.77 8.7C806.52 8.7 753.68 104.43 753.68 222.71ZM1586.94 433.82C1595.64 432.85 1594.68 441.23 1589.84 442.84C1582.11 444.78 1573.73 445.1 1561.49 445.1C1532.81 445.1 1482.22 438.98 1443.56 390.63C1398.44 334.23 1391.68 235.6 1300.81 235.6L1281.8 235.6L1281.8 410.61C1281.8 425.12 1295.01 428.34 1299.84 428.34L1336.9 428.34C1340.44 428.34 1342.06 429.95 1342.06 432.53C1342.06 435.11 1339.8 436.4 1337.22 436.4L1153.56 436.4C1150.33 436.4 1149.04 433.5 1149.04 432.21C1149.04 430.92 1150.33 428.34 1153.56 428.34L1192.54 428.34C1202.86 428.34 1208.66 416.74 1208.66 409L1208.66 38.68C1208.66 22.56 1200.6 16.76 1192.22 16.76L1152.59 16.76C1150.33 16.76 1148.08 15.15 1148.08 12.57C1148.08 9.99 1150.33 8.7 1152.59 8.7L1325.62 8.7C1475.78 8.7 1516.7 58.98 1516.7 125.38C1516.7 207.24 1435.82 230.45 1363.64 234.64C1407.47 241.08 1451.93 273.63 1472.88 305.54C1500.91 348.73 1531.52 439.62 1586.94 433.82ZM1300.17 16.76C1287.92 16.76 1281.16 23.85 1281.16 34.81L1281.16 227.22L1320.14 227.22C1381.04 227.22 1446.78 200.47 1446.78 121.19C1446.78 34.81 1372.67 16.76 1326.91 16.76L1300.17 16.76Z" />
</svg>